<svg width="24" height="25" viewBox="0 0 24 25" fill="none" xmlns="http://www.w3.org/2000/svg">
<path d="M11.4806 3.9987C11.6728 3.53673 12.3272 3.53673 12.5193 3.9987L14.6453 9.11016C14.7263 9.30492 14.9095 9.43799 15.1197 9.45485L20.638 9.89724C21.1367 9.93722 21.339 10.5596 20.959 10.8851L16.7546 14.4866C16.5945 14.6238 16.5245 14.8391 16.5734 15.0443L17.8579 20.4292C17.974 20.9159 17.4446 21.3005 17.0176 21.0397L12.2932 18.1541C12.1132 18.0441 11.8868 18.0441 11.7068 18.1541L6.98238 21.0397C6.55539 21.3005 6.02594 20.9159 6.14203 20.4292L7.42652 15.0443C7.47546 14.8391 7.4055 14.6238 7.24531 14.4866L3.04099 10.8851C2.661 10.5596 2.86323 9.93722 3.36197 9.89724L8.88022 9.45485C9.09048 9.43799 9.27363 9.30492 9.35464 9.11016L11.4806 3.9987Z" stroke="#999999" stroke-width="1.5" stroke-linecap="round" stroke-linejoin="round"/>
</svg>
